<svg width="12" height="22" viewBox="0 0 12 22" fill="none" xmlns="http://www.w3.org/2000/svg">
<path d="M0.415957 11.6333L10.1687 20.9258C10.3314 21.0809 10.5476 21.1675 10.7725 21.1675C10.9973 21.1675 11.2135 21.0809 11.3762 20.9258L11.3867 20.9153C11.4659 20.8401 11.5289 20.7496 11.572 20.6493C11.615 20.5489 11.6373 20.4409 11.6373 20.3317C11.6373 20.2225 11.615 20.1145 11.572 20.0141C11.5289 19.9138 11.4659 19.8233 11.3867 19.7481L2.20271 10.9981L11.3867 2.25156C11.4659 2.17636 11.5289 2.08584 11.572 1.9855C11.615 1.88517 11.6373 1.77712 11.6373 1.66794C11.6373 1.55875 11.615 1.4507 11.572 1.35037C11.5289 1.25004 11.4659 1.15951 11.3867 1.08431L11.3762 1.07381C11.2135 0.918682 10.9973 0.832142 10.7725 0.832142C10.5476 0.832142 10.3314 0.918682 10.1687 1.07381L0.415957 10.3663C0.330185 10.448 0.261902 10.5463 0.215245 10.6552C0.168589 10.7641 0.144531 10.8813 0.144531 10.9998C0.144531 11.1183 0.168589 11.2355 0.215245 11.3444C0.261902 11.4533 0.330185 11.5516 0.415957 11.6333Z" fill="#1A1A1A"/>
</svg>
