<svg width="40" height="40" viewBox="0 0 40 40" fill="none" xmlns="http://www.w3.org/2000/svg">
<path fill-rule="evenodd" clip-rule="evenodd" d="M16.9926 32.5002C16.9926 33.9085 15.8509 35.0502 14.4426 35.0502C13.0343 35.0502 11.8926 33.9085 11.8926 32.5002C11.8926 31.0919 13.0343 29.9502 14.4426 29.9502C15.8509 29.9502 16.9926 31.0919 16.9926 32.5002ZM15.6926 32.5002C15.6926 33.1906 15.1329 33.7502 14.4426 33.7502C13.7522 33.7502 13.1926 33.1906 13.1926 32.5002C13.1926 31.8098 13.7522 31.2502 14.4426 31.2502C15.1329 31.2502 15.6926 31.8098 15.6926 32.5002Z" fill="#1A1A1A"/>
<path fill-rule="evenodd" clip-rule="evenodd" d="M34.4926 32.5002C34.4926 33.9085 33.3509 35.0502 31.9426 35.0502C30.5343 35.0502 29.3926 33.9085 29.3926 32.5002C29.3926 31.0919 30.5343 29.9502 31.9426 29.9502C33.3509 29.9502 34.4926 31.0919 34.4926 32.5002ZM33.1926 32.5002C33.1926 33.1906 32.6329 33.7502 31.9426 33.7502C31.2522 33.7502 30.6926 33.1906 30.6926 32.5002C30.6926 31.8098 31.2522 31.2502 31.9426 31.2502C32.6329 31.2502 33.1926 31.8098 33.1926 32.5002Z" fill="#1A1A1A"/>
<path fill-rule="evenodd" clip-rule="evenodd" d="M3.79297 6.2501C3.79297 5.89111 4.08398 5.6001 4.44297 5.6001H9.44297C9.75838 5.6001 10.0283 5.82653 10.0831 6.13714L13.7383 26.8501H33.193C33.552 26.8501 33.843 27.1411 33.843 27.5001C33.843 27.8591 33.552 28.1501 33.193 28.1501H13.193C12.8776 28.1501 12.6077 27.9237 12.5529 27.6131L8.89763 6.9001H4.44297C4.08398 6.9001 3.79297 6.60908 3.79297 6.2501Z" fill="#1A1A1A"/>
<path fill-rule="evenodd" clip-rule="evenodd" d="M34.9305 9.3501C35.119 9.35003 35.3053 9.3918 35.4758 9.47239C35.6464 9.55304 35.797 9.67057 35.9167 9.81649C36.0364 9.9624 36.1222 10.1331 36.1679 10.3162C36.2136 10.4993 36.2181 10.6903 36.1811 10.8753L33.9311 22.1252L33.9311 22.1253C33.8732 22.4145 33.7169 22.6746 33.4888 22.8614C33.2607 23.0483 32.9749 23.1503 32.68 23.1501L32.6805 22.5015V23.1501H32.68H13.193C12.834 23.1501 12.543 22.8591 12.543 22.5001C12.543 22.1411 12.834 21.8501 13.193 21.8501H32.6604L32.6564 21.8701C32.6576 21.8645 32.6606 21.8594 32.6651 21.8558C32.6694 21.8522 32.6748 21.8502 32.6805 21.8501H32.6604L34.9004 10.6501H34.9305C34.9306 10.6501 34.9308 10.6501 34.9309 10.6501L34.9305 10.6501C34.9269 10.65 34.9234 10.6492 34.9202 10.6477C34.9169 10.6461 34.9139 10.6438 34.9116 10.641C34.9092 10.6381 34.9075 10.6347 34.9066 10.6312C34.9058 10.6276 34.9057 10.6239 34.9064 10.6203C34.9064 10.6203 34.9064 10.6202 34.9064 10.6202L34.9064 10.6203L34.9004 10.6501H10.693C10.334 10.6501 10.043 10.3591 10.043 10.0001C10.043 9.64111 10.334 9.3501 10.693 9.3501H34.9302C34.9301 9.3501 34.9301 9.3501 34.93 9.3501L34.9305 10.0001V9.3501Z" fill="#1A1A1A"/>
</svg>
