<svg width="36" height="36" viewBox="0 0 36 36" fill="none" xmlns="http://www.w3.org/2000/svg">
<path fill-rule="evenodd" clip-rule="evenodd" d="M5.34961 28.4999C5.34961 28.1409 5.64062 27.8499 5.99961 27.8499H17.9996C18.3586 27.8499 18.6496 28.1409 18.6496 28.4999C18.6496 28.8589 18.3586 29.1499 17.9996 29.1499H5.99961C5.64062 29.1499 5.34961 28.8589 5.34961 28.4999ZM5.34961 17.9999C5.34961 17.6409 5.64062 17.3499 5.99961 17.3499H10.4996C10.8586 17.3499 11.1496 17.6409 11.1496 17.9999C11.1496 18.3589 10.8586 18.6499 10.4996 18.6499H5.99961C5.64062 18.6499 5.34961 18.3589 5.34961 17.9999ZM5.34961 7.4999C5.34961 7.14092 5.64062 6.8499 5.99961 6.8499H19.4996C19.8586 6.8499 20.1496 7.14092 20.1496 7.4999C20.1496 7.85889 19.8586 8.1499 19.4996 8.1499H5.99961C5.64062 8.1499 5.34961 7.85889 5.34961 7.4999ZM15.8496 17.9999C15.8496 17.6409 16.1406 17.3499 16.4996 17.3499H29.9996C30.3586 17.3499 30.6496 17.6409 30.6496 17.9999C30.6496 18.3589 30.3586 18.6499 29.9996 18.6499H16.4996C16.1406 18.6499 15.8496 18.3589 15.8496 17.9999ZM23.3496 28.4999C23.3496 28.1409 23.6406 27.8499 23.9996 27.8499H29.9996C30.3586 27.8499 30.6496 28.1409 30.6496 28.4999C30.6496 28.8589 30.3586 29.1499 29.9996 29.1499H23.9996C23.6406 29.1499 23.3496 28.8589 23.3496 28.4999ZM24.8496 7.4999C24.8496 7.14092 25.1406 6.8499 25.4996 6.8499H29.9996C30.3586 6.8499 30.6496 7.14092 30.6496 7.4999C30.6496 7.85889 30.3586 8.1499 29.9996 8.1499H25.4996C25.1406 8.1499 24.8496 7.85889 24.8496 7.4999Z" fill="#1A1A1A"/>
<path fill-rule="evenodd" clip-rule="evenodd" d="M18.6496 28.4999C18.6496 29.7978 19.7017 30.8499 20.9996 30.8499C22.2975 30.8499 23.3496 29.7978 23.3496 28.4999C23.3496 27.202 22.2975 26.1499 20.9996 26.1499C19.7017 26.1499 18.6496 27.202 18.6496 28.4999ZM20.9996 32.1499C18.9838 32.1499 17.3496 30.5157 17.3496 28.4999C17.3496 26.4841 18.9838 24.8499 20.9996 24.8499C23.0154 24.8499 24.6496 26.4841 24.6496 28.4999C24.6496 30.5157 23.0154 32.1499 20.9996 32.1499Z" fill="#1A1A1A"/>
<path fill-rule="evenodd" clip-rule="evenodd" d="M11.1496 17.9999C11.1496 19.2978 12.2017 20.3499 13.4996 20.3499C14.7975 20.3499 15.8496 19.2978 15.8496 17.9999C15.8496 16.702 14.7975 15.6499 13.4996 15.6499C12.2017 15.6499 11.1496 16.702 11.1496 17.9999ZM13.4996 21.6499C11.4838 21.6499 9.84961 20.0157 9.84961 17.9999C9.84961 15.9841 11.4838 14.3499 13.4996 14.3499C15.5154 14.3499 17.1496 15.9841 17.1496 17.9999C17.1496 20.0157 15.5154 21.6499 13.4996 21.6499Z" fill="#1A1A1A"/>
<path fill-rule="evenodd" clip-rule="evenodd" d="M20.1496 7.4999C20.1496 8.79777 21.2017 9.8499 22.4996 9.8499C23.7975 9.8499 24.8496 8.79777 24.8496 7.4999C24.8496 6.20203 23.7975 5.1499 22.4996 5.1499C21.2017 5.1499 20.1496 6.20203 20.1496 7.4999ZM22.4996 11.1499C20.4838 11.1499 18.8496 9.51574 18.8496 7.4999C18.8496 5.48406 20.4838 3.8499 22.4996 3.8499C24.5154 3.8499 26.1496 5.48406 26.1496 7.4999C26.1496 9.51574 24.5154 11.1499 22.4996 11.1499Z" fill="#1A1A1A"/>
</svg>
