<svg width="137" height="62" viewBox="0 0 137 62" fill="none" xmlns="http://www.w3.org/2000/svg">
<mask id="mask0_2303_9930" style="mask-type:luminance" maskUnits="userSpaceOnUse" x="0" y="0" width="137" height="62">
<path d="M136.211 0.263916H0.171875V61.7434H136.211V0.263916Z" fill="white"/>
</mask>
<g mask="url(#mask0_2303_9930)">
<path d="M31.8065 -32.1841L-20.8379 20.784L-1.33021 40.4116L51.3142 -12.5564L31.8065 -32.1841Z" fill="#1A1A1A"/>
<path d="M84.8163 -31.8129L32.1719 21.1552L51.6796 40.7828L104.324 -12.1852L84.8163 -31.8129Z" fill="#1A1A1A"/>
<path d="M25.8377 27.5267L-26.8066 80.4948L-7.29896 100.122L45.3454 47.1544L25.8377 27.5267Z" fill="#1A1A1A"/>
<path d="M138.201 21.9109L85.5566 74.879L105.064 94.5066L157.709 41.5385L138.201 21.9109Z" fill="#1A1A1A"/>
<path d="M144.14 -37.786L91.4961 15.1821L111.004 34.8097L163.648 -18.1584L144.14 -37.786Z" fill="#1A1A1A"/>
<path d="M85.162 21.5536L32.5176 74.5217L52.0253 94.1493L104.67 41.1812L85.162 21.5536Z" fill="#1A1A1A"/>
</g>
</svg>
