<svg width="279" height="41" viewBox="0 0 279 41" fill="none" xmlns="http://www.w3.org/2000/svg">
<path d="M30.0792 16.7412C30.0792 20.2422 26.3014 23.093 21.691 23.093H9.11481C4.45467 23.093 0.726562 20.2672 0.726562 16.7412V7.20112C0.726562 3.70015 4.50438 0.849365 9.11481 0.849365H21.691C26.1399 0.849365 30.0792 3.73766 30.0792 7.20112V16.7412ZM25.8789 7.20112C25.8789 5.45064 23.99 4.02524 21.6785 4.02524H9.10238C6.79096 4.02524 4.90205 5.45064 4.90205 7.20112V16.7412C4.90205 18.4917 6.79096 19.9171 9.10238 19.9171H21.6785C23.99 19.9171 25.8789 18.4917 25.8789 16.7412V7.20112Z" fill="#1A1A1A"/>
<path d="M63.2088 23.093H59.0085V4.02529H38.0441V23.093H33.8438V0.836914H63.1964V23.093H63.2088Z" fill="#1A1A1A"/>
<path d="M96.7628 16.7413C96.7628 20.1172 93.072 23.093 88.3746 23.093H67.4102V0.836914H71.6105V8.78911H88.387C92.8732 8.78911 96.651 11.6149 96.7752 15.1409V16.7288L96.7628 16.7413ZM92.5625 15.1534C92.5625 13.4029 90.6736 11.9775 88.3621 11.9775H71.5856V19.9297H88.3621C90.6736 19.9297 92.5625 18.5043 92.5625 16.7538V15.1659V15.1534ZM100.951 0.849411H105.151V23.1056H100.951V0.849411Z" fill="#1A1A1A"/>
<path d="M124.028 4.02524V23.093H119.828V4.02524H107.252V0.849365H136.605V4.02524H124.016H124.028Z" fill="#1A1A1A"/>
<path d="M180.061 0.849487V23.1056H175.861V4.03787H159.084C156.773 4.03787 154.884 5.46327 154.884 7.21375V23.1056H150.684V7.21375C150.684 3.7753 154.374 0.949518 159.072 0.861993H180.036L180.061 0.849487Z" fill="#1A1A1A"/>
<path d="M188.45 10.3771H209.414V13.553H188.45V19.9047H213.614V23.0806H184.262V0.824463H213.614V4.00034H188.45V10.3521V10.3771Z" fill="#1A1A1A"/>
<path d="M237.523 0.849487C242.009 0.849487 245.787 3.67527 245.911 7.20124H241.711C241.711 5.45076 239.822 4.02536 237.511 4.02536H224.934C222.623 4.02536 220.734 5.45076 220.734 7.20124V16.7414C220.734 18.4918 222.623 19.9172 224.934 19.9172H237.511C239.822 19.9172 241.711 18.4918 241.711 16.7414H245.911C245.911 20.1173 242.22 23.0931 237.523 23.0931H224.947C220.461 23.0931 216.559 20.3299 216.559 16.7414V7.20124C216.559 3.76279 220.249 0.937011 224.947 0.849487H237.523Z" fill="#1A1A1A"/>
<path d="M278.633 23.0931H274.432V16.7414H253.468V23.0931H249.268V7.20124C249.268 3.83781 252.958 0.849487 257.656 0.849487H270.232C274.718 0.849487 278.496 3.67527 278.62 7.20124V23.0931H278.633ZM257.668 4.02536C255.357 4.02536 253.468 5.45076 253.468 7.20124V13.553H274.432V7.20124C274.432 5.45076 272.543 4.02536 270.232 4.02536H257.656H257.668Z" fill="#1A1A1A"/>
<path d="M51.6037 35.1715V40.548H50.7089V35.1715H48.0371V34.2712H54.2755V35.1715H51.6037Z" fill="#1A1A1A"/>
<path d="M56.2756 36.9719H60.7245V37.8722H56.2756V39.6602H61.6192V40.5604H55.3809V34.2837H61.6192V35.1839H56.2756V36.9719Z" fill="#1A1A1A"/>
<path d="M69.2247 36.972C69.2247 37.9222 68.4418 38.76 67.4476 38.76H63.8811V40.548H62.9863V34.2712H67.4352C68.3921 34.2712 69.1874 35.0715 69.2123 36.0592V36.9595L69.2247 36.972ZM68.33 36.0717C68.33 35.5841 67.9323 35.1715 67.4352 35.1715H63.8686V37.8597H67.4352C67.9199 37.8597 68.33 37.4596 68.33 36.9595V36.0592V36.0717Z" fill="#1A1A1A"/>
<path d="M71.5002 35.8841V40.5604H70.6055V34.2837H71.5002L74.172 38.1598L76.8438 34.2837H77.7386V40.5604H76.8438V35.8841L74.172 39.7602L71.5002 35.8841Z" fill="#1A1A1A"/>
<path d="M85.431 38.7599C85.431 39.7477 84.6357 40.5479 83.654 40.5479H80.9821C79.988 40.5479 79.2051 39.7477 79.2051 38.7599V36.0717C79.2051 35.0839 80.0004 34.2837 80.9821 34.2837H83.654C84.5984 34.2837 85.431 35.0964 85.431 36.0717V38.7599ZM84.5363 36.0717C84.5363 35.5841 84.1386 35.1714 83.6415 35.1714H80.9697C80.4851 35.1714 80.075 35.5715 80.075 36.0717V38.7599C80.075 39.2476 80.4726 39.6602 80.9697 39.6602H83.6415C84.1262 39.6602 84.5363 39.2601 84.5363 38.7599V36.0717Z" fill="#1A1A1A"/>
<path d="M86.4492 39.6602H87.344V36.0717C87.344 35.1214 88.1269 34.2837 89.121 34.2837H93.5699V39.6602H94.4647V40.5604H86.4492V39.6602ZM88.2263 39.6602H92.6752V35.1839H89.1086C88.624 35.1839 88.2139 35.584 88.2139 36.0842V39.6727L88.2263 39.6602Z" fill="#1A1A1A"/>
<path d="M101.82 36.972C101.82 37.9222 101.037 38.76 100.043 38.76H96.4768V40.548H95.582V34.2712H100.031C100.988 34.2712 101.783 35.0715 101.808 36.0592V36.9595L101.82 36.972ZM100.926 36.0717C100.926 35.5841 100.528 35.1715 100.031 35.1715H96.4643V37.8597H100.031C100.516 37.8597 100.926 37.4596 100.926 36.9595V36.0592V36.0717Z" fill="#1A1A1A"/>
<path d="M104.082 36.9719H108.531V37.8722H104.082V39.6602H109.426V40.5604H103.188V34.2837H109.426V35.1839H104.082V36.9719Z" fill="#1A1A1A"/>
<path d="M110.807 40.5604V34.2837H115.256C116.188 34.2837 117.033 35.0839 117.033 36.0717C117.033 36.6093 116.834 37.0594 116.424 37.422C116.821 37.7846 117.033 38.2223 117.033 38.7724C117.033 39.7352 116.25 40.5354 115.256 40.5604H110.807ZM111.701 36.9719H115.268C115.753 36.9719 116.163 36.5718 116.163 36.0717C116.163 35.5715 115.765 35.1714 115.268 35.1714H111.701V36.9594V36.9719ZM111.701 37.8722V39.6602H115.268C115.753 39.6602 116.163 39.2601 116.163 38.7599C116.163 38.2598 115.765 37.8597 115.268 37.8597H111.701V37.8722Z" fill="#1A1A1A"/>
<path d="M119.393 36.9719H123.842V37.8722H119.393V39.6602H124.736V40.5604H118.498V34.2837H124.736V35.1839H119.393V36.9719Z" fill="#1A1A1A"/>
<path d="M130.49 34.2837C131.447 34.2837 132.242 35.0839 132.267 36.0717H131.372C131.372 35.5841 130.975 35.1714 130.477 35.1714H127.806C127.321 35.1714 126.911 35.5715 126.911 36.0717V38.7599C126.911 39.2476 127.309 39.6602 127.806 39.6602H130.477C130.962 39.6602 131.372 39.2601 131.372 38.7599H132.267C132.267 39.7102 131.484 40.5479 130.49 40.5479H127.818C126.861 40.5479 126.041 39.7727 126.041 38.7599V36.0717C126.041 35.1089 126.824 34.3087 127.818 34.2837H130.49Z" fill="#1A1A1A"/>
<path d="M133.646 34.2837H134.541V39.2601L138.99 34.2837H139.885V40.5604H138.99V35.4965L134.541 40.5604H133.646V34.2837Z" fill="#1A1A1A"/>
<path d="M142.321 36.9719H146.769V34.2837H147.664V40.5604H146.769V37.8722H142.321V40.5604H141.426V34.2837H142.321V36.9719Z" fill="#1A1A1A"/>
<path d="M155.457 40.5605H154.562V38.7725H150.113V40.5605H149.219V36.0843C149.219 35.134 150.002 34.2963 150.996 34.2963H153.668C154.625 34.2963 155.42 35.0965 155.445 36.0843V40.5605H155.457ZM151.008 35.184C150.524 35.184 150.113 35.5841 150.113 36.0843V37.8723H154.562V36.0843C154.562 35.5966 154.165 35.184 153.668 35.184H150.996H151.008Z" fill="#1A1A1A"/>
<path d="M167.386 38.7599C167.386 39.7477 166.591 40.5479 165.609 40.5479H162.937C161.943 40.5479 161.16 39.7477 161.16 38.7599V36.0717C161.16 35.0839 161.955 34.2837 162.937 34.2837H165.609C166.553 34.2837 167.386 35.0964 167.386 36.0717V38.7599ZM166.491 36.0717C166.491 35.5841 166.094 35.1714 165.597 35.1714H162.925C162.44 35.1714 162.03 35.5715 162.03 36.0717V38.7599C162.03 39.2476 162.428 39.6602 162.925 39.6602H165.597C166.081 39.6602 166.491 39.2601 166.491 38.7599V36.0717Z" fill="#1A1A1A"/>
<path d="M171.973 35.1715V40.548H171.078V35.1715H168.406V34.2712H174.645V35.1715H171.973Z" fill="#1A1A1A"/>
<path d="M186.213 40.5604H185.318V35.1839H180.869V40.5604H179.975V34.2837H186.213V40.5604Z" fill="#1A1A1A"/>
<path d="M194.006 36.972C194.006 37.9222 193.223 38.76 192.229 38.76H188.662V40.548H187.768V34.2712H192.216C193.173 34.2712 193.969 35.0715 193.994 36.0592V36.9595L194.006 36.972ZM193.111 36.0717C193.111 35.5841 192.714 35.1715 192.216 35.1715H188.65V37.8597H192.216C192.701 37.8597 193.111 37.4596 193.111 36.9595V36.0592V36.0717Z" fill="#1A1A1A"/>
<path d="M201.537 38.7599C201.537 39.7477 200.741 40.5479 199.759 40.5479H197.088C196.093 40.5479 195.311 39.7477 195.311 38.7599V36.0717C195.311 35.0839 196.106 34.2837 197.088 34.2837H199.759C200.704 34.2837 201.537 35.0964 201.537 36.0717V38.7599ZM200.642 36.0717C200.642 35.5841 200.244 35.1714 199.747 35.1714H197.075C196.591 35.1714 196.18 35.5715 196.18 36.0717V38.7599C196.18 39.2476 196.578 39.6602 197.075 39.6602H199.747C200.232 39.6602 200.642 39.2601 200.642 38.7599V36.0717Z" fill="#1A1A1A"/>
<path d="M203.002 34.2837H203.897V39.2601L208.346 34.2837H209.24V40.5604H208.346V35.4965L203.897 40.5604H203.002V34.2837Z" fill="#1A1A1A"/>
<path d="M213.28 36.9719H215.057C215.542 36.9719 215.952 36.5718 215.952 36.0717C215.952 35.5715 215.554 35.1714 215.057 35.1714H212.385C211.901 35.1714 211.49 35.5715 211.49 36.0717H210.596C210.596 35.1214 211.379 34.2837 212.373 34.2837H215.045C215.977 34.2837 216.822 35.0839 216.822 36.0717C216.822 36.6093 216.623 37.0594 216.213 37.422C216.61 37.7846 216.822 38.2223 216.822 38.7724C216.822 39.7227 216.039 40.5604 215.045 40.5604H212.373C211.403 40.5604 210.621 39.7852 210.596 38.7724H211.49C211.49 39.2601 211.888 39.6727 212.385 39.6727H215.057C215.542 39.6727 215.952 39.2726 215.952 38.7724C215.952 38.2723 215.554 37.8722 215.057 37.8722H213.28V36.9719Z" fill="#1A1A1A"/>
<path d="M218.312 40.5604V34.2837H222.761C223.693 34.2837 224.538 35.0839 224.538 36.0717C224.538 36.6093 224.34 37.0594 223.93 37.422C224.327 37.7846 224.538 38.2223 224.538 38.7724C224.538 39.7352 223.756 40.5354 222.761 40.5604H218.312ZM219.207 36.9719H222.774C223.258 36.9719 223.669 36.5718 223.669 36.0717C223.669 35.5715 223.271 35.1714 222.774 35.1714H219.207V36.9594V36.9719ZM219.207 37.8722V39.6602H222.774C223.258 39.6602 223.669 39.2601 223.669 38.7599C223.669 38.2598 223.271 37.8597 222.774 37.8597H219.207V37.8722Z" fill="#1A1A1A"/>
<path d="M232.156 38.7599C232.156 39.7477 231.36 40.5479 230.379 40.5479H227.707C226.713 40.5479 225.93 39.7477 225.93 38.7599V36.0717C225.93 35.0839 226.725 34.2837 227.707 34.2837H230.379C231.323 34.2837 232.156 35.0964 232.156 36.0717V38.7599ZM231.261 36.0717C231.261 35.5841 230.863 35.1714 230.366 35.1714H227.694C227.21 35.1714 226.8 35.5715 226.8 36.0717V38.7599C226.8 39.2476 227.197 39.6602 227.694 39.6602H230.366C230.851 39.6602 231.261 39.2601 231.261 38.7599V36.0717Z" fill="#1A1A1A"/>
<path d="M233.176 39.6602H234.071V36.0717C234.071 35.1214 234.853 34.2837 235.848 34.2837H240.296V39.6602H241.191V40.5604H233.176V39.6602ZM234.953 39.6602H239.402V35.1839H235.835C235.351 35.1839 234.94 35.584 234.94 36.0842V39.6727L234.953 39.6602Z" fill="#1A1A1A"/>
<path d="M242.309 34.2837H243.203V39.2601L247.652 34.2837H248.547V40.5604H247.652V35.4965L243.203 40.5604H242.309V34.2837Z" fill="#1A1A1A"/>
<path d="M253.207 35.1715V40.548H252.312V35.1715H249.641V34.2712H255.879V35.1715H253.207Z" fill="#1A1A1A"/>
<path d="M257.879 36.9719H262.328V37.8722H257.879V39.6602H263.223V40.5604H256.984V34.2837H263.223V35.1839H257.879V36.9719Z" fill="#1A1A1A"/>
<path d="M270.841 34.2837V40.5604H269.946V35.1839H266.379C265.895 35.1839 265.485 35.584 265.485 36.0842V40.5604H264.59V36.0842C264.59 35.1214 265.373 34.3212 266.367 34.2962H270.816L270.841 34.2837Z" fill="#1A1A1A"/>
<path d="M273.028 40.5604H272.395V39.9227L273.637 38.6724C272.929 38.4348 272.395 37.7721 272.395 36.9719V36.0717C272.395 35.1214 273.177 34.2837 274.172 34.2837H278.62V40.5604H277.726V38.7724H274.793L273.016 40.5604H273.028ZM273.289 36.9719C273.289 37.4596 273.687 37.8722 274.184 37.8722H277.751V35.1839H274.184C273.699 35.1839 273.289 35.584 273.289 36.0842V36.9844V36.9719Z" fill="#1A1A1A"/>
<path d="M41.0033 37.5597H0.714844V38.1974H41.0033V37.5597Z" fill="#1A1A1A"/>
</svg>
