<svg width="30" height="30" viewBox="0 0 30 30" fill="none" xmlns="http://www.w3.org/2000/svg">
<path fill-rule="evenodd" clip-rule="evenodd" d="M14.9992 26.5002C21.3505 26.5002 26.4992 21.3515 26.4992 15.0002C26.4992 8.64892 21.3505 3.5002 14.9992 3.5002C8.64794 3.5002 3.49922 8.64892 3.49922 15.0002C3.49922 21.3515 8.64794 26.5002 14.9992 26.5002ZM14.9992 27.8002C22.0685 27.8002 27.7992 22.0694 27.7992 15.0002C27.7992 7.93095 22.0685 2.2002 14.9992 2.2002C7.92997 2.2002 2.19922 7.93095 2.19922 15.0002C2.19922 22.0694 7.92997 27.8002 14.9992 27.8002Z" fill="#1A1A1A"/>
<path d="M11.1698 7.62589L12.2765 7.29255C12.7803 7.14056 13.3222 7.1771 13.801 7.39535C14.2798 7.6136 14.6629 7.99864 14.8786 8.4786L15.5673 10.0107C15.7529 10.4234 15.8046 10.8839 15.7152 11.3275C15.6257 11.7711 15.3996 12.1755 15.0686 12.4841L13.8653 13.6061C13.8509 13.6204 13.8387 13.6369 13.8293 13.6548C13.7032 13.9122 13.8946 14.5995 14.4939 15.6382C15.17 16.8089 15.692 17.2716 15.934 17.2003L17.5134 16.7169C17.9459 16.5849 18.409 16.5914 18.8376 16.7357C19.2662 16.88 19.6389 17.1548 19.9035 17.5216L20.8822 18.877C21.1895 19.3026 21.3318 19.8253 21.2828 20.3479C21.2337 20.8705 20.9966 21.3575 20.6155 21.7185L19.7735 22.5152C19.4807 22.7925 19.1251 22.9949 18.7371 23.1051C18.3492 23.2153 17.9403 23.23 17.5454 23.1479C15.2006 22.6599 13.0999 20.7718 11.2251 17.525C9.34973 14.2762 8.76504 11.5094 9.51841 9.23396C9.64452 8.85301 9.86047 8.50802 10.148 8.22813C10.4356 7.94824 10.7856 7.74168 11.1698 7.62589ZM11.4598 8.58327C11.2293 8.6527 11.0189 8.77661 10.8463 8.94453C10.6737 9.11244 10.5441 9.31942 10.4684 9.54797C9.81909 11.5087 10.3451 13.9995 12.0918 17.025C13.8373 20.0484 15.7293 21.7485 17.7501 22.1685C17.987 22.2177 18.2323 22.2088 18.4651 22.1426C18.6979 22.0765 18.9112 21.9549 19.0868 21.7885L19.9282 20.9925C20.1335 20.7981 20.2612 20.5359 20.2877 20.2545C20.3142 19.9731 20.2376 19.6916 20.0722 19.4624L19.0935 18.1063C18.951 17.9089 18.7504 17.7609 18.5196 17.6832C18.2889 17.6055 18.0396 17.6019 17.8068 17.673L16.2234 18.1577C15.3473 18.4183 14.5233 17.6883 13.6286 16.1376C12.8705 14.8255 12.6079 13.8775 12.9319 13.2155C12.995 13.0866 13.079 12.973 13.1839 12.8748L14.3873 11.7527C14.5656 11.5866 14.6874 11.3688 14.7356 11.1299C14.7837 10.891 14.7559 10.643 14.656 10.4207L13.9666 8.88928C13.8504 8.63078 13.6441 8.42339 13.3863 8.30586C13.1284 8.18833 12.8365 8.16868 12.5652 8.25059L11.4598 8.58327Z" fill="#1A1A1A"/>
</svg>
