<svg width="30" height="30" viewBox="0 0 30 30" fill="none" xmlns="http://www.w3.org/2000/svg">
<path d="M19.0102 14.6098L13.3852 10.8598C13.3145 10.8127 13.2325 10.7856 13.1477 10.7815C13.0629 10.7774 12.9786 10.7964 12.9038 10.8365C12.8289 10.8765 12.7664 10.9362 12.7228 11.009C12.6792 11.0818 12.6562 11.1651 12.6562 11.25V18.75C12.6562 18.8349 12.6791 18.9182 12.7226 18.9911C12.7662 19.0639 12.8287 19.1236 12.9035 19.1637C12.9784 19.2038 13.0627 19.2228 13.1476 19.2187C13.2324 19.2145 13.3145 19.1874 13.3852 19.1403L19.0102 15.3903C19.0745 15.3475 19.1272 15.2895 19.1637 15.2214C19.2001 15.1533 19.2192 15.0773 19.2192 15C19.2192 14.9228 19.2001 14.8468 19.1637 14.7787C19.1272 14.7106 19.0745 14.6526 19.0102 14.6098ZM13.5938 17.8746V12.1254L17.9051 15L13.5938 17.8746ZM27.007 8.26526C26.9154 7.90514 26.7395 7.57197 26.4937 7.29324C26.248 7.0145 25.9395 6.79818 25.5938 6.66213C21.6328 5.13166 15.266 5.15627 15 5.15627C14.734 5.15627 8.36719 5.13166 4.40625 6.66213C4.0606 6.79807 3.7522 7.0142 3.50648 7.29273C3.26076 7.57125 3.08475 7.90418 2.99297 8.26409C2.69531 9.40666 2.34375 11.5031 2.34375 15C2.34375 18.4969 2.69531 20.5934 2.99297 21.736C3.08475 22.0959 3.26076 22.4288 3.50648 22.7073C3.7522 22.9858 4.0606 23.202 4.40625 23.3379C8.36719 24.8684 14.734 24.8438 15 24.8438H15.0832C15.8906 24.8438 21.8309 24.7934 25.5973 23.3379C25.9429 23.202 26.2513 22.9858 26.497 22.7073C26.7428 22.4288 26.9188 22.0959 27.0105 21.736C27.3047 20.5922 27.6562 18.4969 27.6562 15C27.6562 11.5031 27.3047 9.40666 27.007 8.26409V8.26526ZM26.1 21.5074C26.0455 21.7235 25.9405 21.9234 25.7936 22.0909C25.6467 22.2584 25.4621 22.3886 25.2551 22.4707C21.4617 23.9285 15.0668 23.9063 15 23.9063C14.9332 23.9063 8.5418 23.9285 4.74844 22.4637C4.54137 22.3815 4.35679 22.2514 4.20989 22.0839C4.06299 21.9164 3.95798 21.7164 3.90352 21.5004C3.61758 20.4106 3.28125 18.3985 3.28125 15C3.28125 11.6016 3.61758 9.58948 3.9 8.49963C3.95447 8.28362 4.05948 8.08364 4.20637 7.91617C4.35327 7.74869 4.53786 7.61851 4.74492 7.53635C8.53828 6.07151 14.9332 6.09377 15 6.09377C15.0668 6.09377 21.4582 6.07034 25.2516 7.53635C25.4586 7.61851 25.6432 7.74869 25.7901 7.91617C25.937 8.08364 26.042 8.28362 26.0965 8.49963C26.3824 9.58948 26.7188 11.6016 26.7188 15C26.7188 18.3985 26.3824 20.4106 26.1 21.5004V21.5074Z" fill="#1A1A1A" stroke="#1A1A1A" stroke-width="0.3"/>
</svg>
