<svg width="30" height="30" viewBox="0 0 30 30" fill="none" xmlns="http://www.w3.org/2000/svg">
<path d="M21.7725 17.393L18.0225 15.518C17.9487 15.4812 17.8665 15.4645 17.7842 15.4697C17.7019 15.4748 17.6224 15.5016 17.5537 15.5473L15.6037 16.848C14.5318 16.334 13.6674 15.4696 13.1533 14.3977L14.4541 12.4477C14.4998 12.379 14.5266 12.2995 14.5317 12.2172C14.5369 12.1349 14.5202 12.0527 14.4834 11.9789L12.6084 8.22891C12.5695 8.15063 12.5095 8.08479 12.4352 8.03882C12.3608 7.99285 12.2751 7.96858 12.1877 7.96875C11.0688 7.96875 9.99579 8.41322 9.20462 9.20439C8.41345 9.99556 7.96898 11.0686 7.96898 12.1875C7.97177 14.7974 9.00977 17.2995 10.8552 19.145C12.7007 20.9905 15.2029 22.0285 17.8127 22.0312C18.9316 22.0312 20.0047 21.5868 20.7958 20.7956C21.587 20.0044 22.0315 18.9314 22.0315 17.8125C22.0315 17.7254 22.0073 17.64 21.9616 17.5659C21.9158 17.4918 21.8504 17.4319 21.7725 17.393ZM17.8127 21.0938C15.4514 21.0913 13.1875 20.1521 11.5178 18.4824C9.84809 16.8127 8.90896 14.5488 8.90648 12.1875C8.90633 11.3663 9.21416 10.5748 9.76915 9.96948C10.3241 9.36415 11.086 8.98895 11.9041 8.91797L13.5213 12.1535L12.2323 14.0918C12.1893 14.1557 12.1628 14.2293 12.155 14.306C12.1472 14.3826 12.1585 14.46 12.1877 14.5312C12.8105 16.0119 13.9884 17.1897 15.469 17.8125C15.5403 17.8421 15.6179 17.8537 15.6947 17.8461C15.7716 17.8386 15.8454 17.8121 15.9096 17.7691L17.8479 16.4801L21.0834 18.0973C21.0122 18.9154 20.6367 19.6771 20.0311 20.2319C19.4256 20.7867 18.634 21.0942 17.8127 21.0938ZM15.0002 3.28125C12.9601 3.28087 10.9552 3.8131 9.18387 4.8253C7.41255 5.8375 5.93615 7.29459 4.90074 9.05245C3.86532 10.8103 3.30675 12.808 3.28028 14.848C3.25382 16.8879 3.76037 18.8995 4.74983 20.6836L3.3553 24.866C3.27267 25.1138 3.26068 25.3797 3.32067 25.6339C3.38066 25.8881 3.51027 26.1206 3.69496 26.3053C3.87965 26.49 4.11212 26.6196 4.36633 26.6796C4.62054 26.7395 4.88643 26.7276 5.13421 26.6449L9.31663 25.2504C10.8811 26.1173 12.6233 26.6145 14.4097 26.7041C16.1961 26.7936 17.9793 26.473 19.6226 25.7669C21.266 25.0608 22.7259 23.9879 23.8905 22.6303C25.0551 21.2728 25.8935 19.6667 26.3415 17.9351C26.7895 16.2035 26.8352 14.3923 26.475 12.6403C26.1149 10.8883 25.3584 9.24201 24.2637 7.82752C23.169 6.41304 21.765 5.26792 20.1593 4.4799C18.5536 3.69187 16.7889 3.28185 15.0002 3.28125ZM15.0002 25.7812C13.1047 25.7818 11.2425 25.2826 9.6014 24.334C9.53008 24.2929 9.44931 24.2711 9.36702 24.2707C9.31641 24.2708 9.26615 24.2791 9.21819 24.2953L4.83772 25.7555C4.75513 25.783 4.6665 25.787 4.58177 25.767C4.49703 25.747 4.41954 25.7038 4.35797 25.6423C4.29641 25.5807 4.25321 25.5032 4.23321 25.4185C4.21322 25.3337 4.21721 25.2451 4.24476 25.1625L5.70491 20.782C5.72597 20.7191 5.73342 20.6523 5.72675 20.5863C5.72008 20.5202 5.69946 20.4563 5.66624 20.3988C4.47761 18.3442 4.00025 15.9548 4.30821 13.6012C4.61617 11.2476 5.69224 9.06147 7.36948 7.38187C9.04673 5.70226 11.2314 4.62312 13.5845 4.31185C15.9377 4.00058 18.3278 4.47458 20.384 5.66032C22.4403 6.84606 24.0478 8.67726 24.9571 10.8698C25.8664 13.0624 26.0267 15.4938 25.4132 17.7867C24.7997 20.0797 23.4466 22.1061 21.5638 23.5516C19.681 24.9971 17.3739 25.7808 15.0002 25.7812Z" fill="#1A1A1A" stroke="#1A1A1A" stroke-width="0.3"/>
</svg>
