<svg width="30" height="30" viewBox="0 0 30 30" fill="none" xmlns="http://www.w3.org/2000/svg">
<path d="M15 9.84375C13.9802 9.84375 12.9833 10.1462 12.1353 10.7127C11.2874 11.2793 10.6265 12.0846 10.2362 13.0268C9.84598 13.969 9.74387 15.0057 9.94283 16.0059C10.1418 17.0061 10.6329 17.9249 11.354 18.646C12.0751 19.3671 12.9939 19.8582 13.9941 20.0572C14.9943 20.2561 16.031 20.154 16.9732 19.7638C17.9154 19.3735 18.7207 18.7126 19.2873 17.8647C19.8538 17.0167 20.1562 16.0198 20.1562 15C20.1547 13.633 19.611 12.3223 18.6443 11.3557C17.6777 10.389 16.367 9.8453 15 9.84375ZM15 19.2188C14.1656 19.2188 13.35 18.9713 12.6562 18.5078C11.9624 18.0442 11.4217 17.3853 11.1024 16.6144C10.7831 15.8436 10.6995 14.9953 10.8623 14.177C11.0251 13.3586 11.4269 12.6069 12.0169 12.0169C12.6069 11.4269 13.3586 11.0251 14.177 10.8623C14.9953 10.6995 15.8436 10.7831 16.6144 11.1024C17.3853 11.4217 18.0442 11.9624 18.5078 12.6562C18.9713 13.35 19.2188 14.1656 19.2188 15C19.2188 16.1189 18.7743 17.1919 17.9831 17.9831C17.1919 18.7743 16.1189 19.2188 15 19.2188ZM20.625 3.28125H9.375C7.75941 3.28311 6.21052 3.92573 5.06812 5.06812C3.92573 6.21052 3.28311 7.75941 3.28125 9.375V20.625C3.28311 22.2406 3.92573 23.7895 5.06812 24.9319C6.21052 26.0743 7.75941 26.7169 9.375 26.7188H20.625C22.2406 26.7169 23.7895 26.0743 24.9319 24.9319C26.0743 23.7895 26.7169 22.2406 26.7188 20.625V9.375C26.7169 7.75941 26.0743 6.21052 24.9319 5.06812C23.7895 3.92573 22.2406 3.28311 20.625 3.28125ZM25.7812 20.625C25.7797 21.992 25.236 23.3027 24.2693 24.2693C23.3027 25.236 21.992 25.7797 20.625 25.7812H9.375C8.00795 25.7797 6.69734 25.236 5.73069 24.2693C4.76404 23.3027 4.2203 21.992 4.21875 20.625V9.375C4.2203 8.00795 4.76404 6.69734 5.73069 5.73069C6.69734 4.76404 8.00795 4.2203 9.375 4.21875H20.625C21.992 4.2203 23.3027 4.76404 24.2693 5.73069C25.236 6.69734 25.7797 8.00795 25.7812 9.375V20.625ZM22.0312 8.90625C22.0312 9.09167 21.9763 9.27293 21.8733 9.4271C21.7702 9.58127 21.6238 9.70143 21.4525 9.77239C21.2812 9.84334 21.0927 9.86191 20.9109 9.82574C20.729 9.78956 20.5619 9.70027 20.4308 9.56916C20.2997 9.43805 20.2104 9.271 20.1743 9.08915C20.1381 8.90729 20.1567 8.71879 20.2276 8.54748C20.2986 8.37618 20.4187 8.22976 20.5729 8.12675C20.7271 8.02373 20.9083 7.96875 21.0938 7.96875C21.3424 7.96875 21.5808 8.06752 21.7567 8.24334C21.9325 8.41915 22.0312 8.65761 22.0312 8.90625Z" fill="#1A1A1A" stroke="#1A1A1A" stroke-width="0.3"/>
</svg>
