<svg width="30" height="30" viewBox="0 0 30 30" fill="none" xmlns="http://www.w3.org/2000/svg">
<path d="M26.5154 3.42437C26.4346 3.35449 26.3362 3.30805 26.2308 3.29008C26.1255 3.27211 26.0172 3.28329 25.9178 3.32242L2.16857 12.6166C1.92647 12.7105 1.72147 12.8807 1.58448 13.1013C1.44748 13.3219 1.38592 13.5811 1.40906 13.8398C1.43221 14.0984 1.5388 14.3426 1.71278 14.5354C1.88677 14.7282 2.11871 14.8592 2.37365 14.9087L8.90568 16.1908V23.4377C8.90564 23.718 8.98941 23.992 9.14623 24.2244C9.30304 24.4568 9.52575 24.637 9.78576 24.7419C9.95307 24.8091 10.1317 24.8437 10.3119 24.8439C10.5006 24.8435 10.6873 24.8051 10.8609 24.731C11.0344 24.6569 11.1913 24.5486 11.3221 24.4127L14.6033 21.0142L19.6424 25.4334C19.8979 25.6586 20.2264 25.7836 20.567 25.7849C20.7158 25.7843 20.8636 25.7609 21.0053 25.7158C21.2373 25.6423 21.446 25.5093 21.6105 25.33C21.775 25.1507 21.8896 24.9314 21.9428 24.6939L26.7029 3.99859C26.7268 3.89487 26.7219 3.78662 26.6889 3.68545C26.6559 3.58429 26.5959 3.49403 26.5154 3.42437ZM2.34318 13.7556C2.3363 13.6989 2.34907 13.6416 2.37936 13.5932C2.40964 13.5448 2.4556 13.5082 2.50958 13.4896L22.9764 5.47984L9.26544 15.306L2.55529 13.9888C2.49841 13.9805 2.44619 13.9527 2.40751 13.9102C2.36883 13.8676 2.3461 13.813 2.34318 13.7556ZM10.6483 23.7611C10.5835 23.8278 10.5002 23.8738 10.4092 23.8931C10.3182 23.9124 10.2235 23.9042 10.1372 23.8695C10.0508 23.8349 9.97678 23.7753 9.92442 23.6984C9.87207 23.6214 9.84379 23.5307 9.84318 23.4377V16.84L13.8955 20.3908L10.6483 23.7611ZM21.0287 24.4806C21.0106 24.5602 20.972 24.6337 20.9168 24.6937C20.8615 24.7538 20.7916 24.7984 20.7138 24.8232C20.636 24.8479 20.5531 24.8519 20.4733 24.8348C20.3935 24.8177 20.3196 24.78 20.2588 24.7255L10.1279 15.8416L25.5615 4.7814L21.0287 24.4806Z" fill="#1A1A1A" stroke="#1A1A1A" stroke-width="0.3"/>
</svg>
