<svg width="30" height="30" viewBox="0 0 30 30" fill="none" xmlns="http://www.w3.org/2000/svg">
<path fill-rule="evenodd" clip-rule="evenodd" d="M2.286 7.52952C2.40828 7.36098 2.6039 7.26123 2.81211 7.26123H7.10586C7.35624 7.26123 7.58435 7.40503 7.69232 7.63093C7.95389 8.17819 8.20792 8.73139 8.45913 9.27843C9.04186 10.5474 9.60935 11.7832 10.2202 12.8347C10.6531 13.5798 11.0842 14.1883 11.5228 14.6196C11.695 14.7889 11.862 14.9248 12.0246 15.0301V9.90363L10.7442 8.3199C10.5867 8.12513 10.5551 7.8572 10.663 7.63117C10.771 7.40514 10.9991 7.26123 11.2496 7.26123H17.2184C17.5773 7.26123 17.8684 7.55225 17.8684 7.91123V13.7051C18.5599 13.0131 19.1052 12.2274 19.6046 11.3852C19.8979 10.8904 20.1698 10.3862 20.4489 9.86877C20.5164 9.74363 20.5843 9.6177 20.653 9.49094C21.0022 8.84696 21.3688 8.18903 21.7883 7.55324C21.9086 7.37093 22.1124 7.26123 22.3309 7.26123H26.4434C26.645 7.26123 26.8353 7.35485 26.9583 7.51463C27.0814 7.67442 27.1233 7.88227 27.0718 8.07726C26.2831 11.0628 24.7477 13.1485 23.2865 15.1335C23.2333 15.2058 23.1801 15.278 23.1271 15.3501C25.1058 17.1249 26.6919 19.2968 27.7803 21.7268C27.8704 21.9279 27.8525 22.1609 27.7326 22.3459C27.6128 22.5308 27.4075 22.6425 27.1871 22.6425H22.6621C22.5062 22.6425 22.3556 22.5865 22.2375 22.4846C21.758 22.071 21.3457 21.6185 20.9664 21.1869C20.8887 21.0984 20.8127 21.0113 20.7379 20.9255C20.4399 20.5837 20.1605 20.2633 19.8596 19.9616C19.2914 19.3917 18.6823 18.9262 17.8684 18.6608V21.9925C17.8684 22.3198 17.6249 22.5961 17.3002 22.6373C12.2134 23.2827 8.79245 20.7811 6.48999 17.5815C4.27811 14.5079 3.04546 10.7251 2.26564 8.33205C2.24139 8.25764 2.21758 8.18457 2.19419 8.1129C2.12959 7.91496 2.16373 7.69805 2.286 7.52952ZM3.70858 8.56123C4.49292 10.941 5.64106 14.1762 7.54517 16.8222C9.575 19.6429 12.4107 21.7289 16.5684 21.4059V17.8425C16.5684 17.653 16.6511 17.4729 16.7948 17.3494C16.9385 17.226 17.129 17.1713 17.3163 17.1999C18.8917 17.4401 19.9288 18.1897 20.7802 19.0437C21.1149 19.3793 21.4302 19.7411 21.7308 20.086C21.8023 20.168 21.873 20.2492 21.943 20.3288C22.2606 20.6902 22.5718 21.0315 22.9097 21.3425H26.1517C25.0818 19.2802 23.6146 17.4457 21.8313 15.9462C21.5702 15.7267 21.5232 15.3428 21.7237 15.0668C21.8952 14.8306 22.0665 14.5974 22.2369 14.3656C23.5536 12.5736 24.8069 10.8679 25.5721 8.56123H22.6856C22.3732 9.05893 22.0853 9.57685 21.7958 10.1106C21.7303 10.2314 21.6646 10.3533 21.5985 10.4759C21.3185 10.9953 21.031 11.5284 20.7228 12.0482C19.9553 13.3426 19.0249 14.6163 17.5955 15.6344C17.3973 15.7756 17.1368 15.7942 16.9205 15.6827C16.7043 15.5713 16.5684 15.3483 16.5684 15.105V8.56123H12.611L13.1801 9.26506C13.2736 9.38073 13.3246 9.52498 13.3246 9.67373V15.955C13.3246 16.1404 13.2454 16.3171 13.1069 16.4404C12.9684 16.5637 12.7838 16.622 12.5996 16.6006C11.8278 16.5109 11.1698 16.0957 10.6114 15.5466C10.0537 14.9982 9.5547 14.277 9.09617 13.4878C8.45245 12.3797 7.84176 11.0501 7.24687 9.75492C7.06139 9.35109 6.87745 8.95061 6.69452 8.56123H3.70858Z" fill="#1A1A1A"/>
</svg>
