<svg width="61" height="61" viewBox="0 0 61 61" fill="none" xmlns="http://www.w3.org/2000/svg">
<g clip-path="url(#clip0_2305_13809)">
<mask id="mask0_2305_13809" style="mask-type:luminance" maskUnits="userSpaceOnUse" x="-1" y="-1" width="137" height="62">
<path d="M135.136 -0.416992H-0.902344V61H135.136V-0.416992Z" fill="white"/>
</mask>
<g mask="url(#mask0_2305_13809)">
<path d="M30.7323 -32.8342L-21.9121 20.0801L-2.40443 39.6878L50.2399 -13.2265L30.7323 -32.8342Z" fill="#1A1A1A"/>
<path d="M83.742 -32.4611L31.0977 20.4531L50.6053 40.0608L103.25 -12.8535L83.742 -32.4611Z" fill="#1A1A1A"/>
<path d="M24.7635 26.8191L-27.8809 79.7334L-8.37318 99.3411L44.2712 46.4268L24.7635 26.8191Z" fill="#1A1A1A"/>
<path d="M84.0877 20.8494L31.4434 73.7637L50.951 93.3714L103.595 40.4571L84.0877 20.8494Z" fill="#1A1A1A"/>
</g>
<path d="M34.3527 20.8919C34.3527 24.3928 30.5748 27.2436 25.9644 27.2436H13.3882C8.72811 27.2436 5 24.4179 5 20.8919V11.3518C5 7.85079 8.77782 5 13.3882 5H25.9644C30.4133 5 34.3527 7.8883 34.3527 11.3518V20.8919ZM30.1523 11.3518C30.1523 9.60127 28.2634 8.17588 25.952 8.17588H13.3758C11.0644 8.17588 9.17549 9.60127 9.17549 11.3518V20.8919C9.17549 22.6424 11.0644 24.0678 13.3758 24.0678H25.952C28.2634 24.0678 30.1523 22.6424 30.1523 20.8919V11.3518Z" fill="#F7F7F7"/>
<path d="M56.0006 33.7441V56.0003H51.8002V36.9325H35.0237C32.7123 36.9325 30.8234 38.3579 30.8234 40.1084V56.0003H26.623V40.1084C26.623 36.67 30.3139 33.8442 35.0113 33.7566H55.9757L56.0006 33.7441Z" fill="#F7F7F7"/>
</g>
<defs>
<clipPath id="clip0_2305_13809">
<rect width="61" height="61" fill="white"/>
</clipPath>
</defs>
</svg>
